# xmcd
#
# Track frame offsets:
#        150
#        19255
#        34880
#        52520
#        81405
#        109402
#        129085
#        156672
#        168232
#        181555
#
# Disc length: 2676 seconds
#
# Revision: 0
# Processed by: cddbd v1.5.1PL0 Copyright (c) Steve Scherf et al.
# Submitted via: ExactAudioCopy v0.95a5
#
DISCID=750a720a
DTITLE=HumblePie - BestOfHumblePie
DYEAR=1900
DGENRE=Rock
TTITLE0=Natural Born Boogie
TTITLE1=Bang
TTITLE2=I'll Go Alone
TTITLE3=Desperation
TTITLE4=Nifty Little Number Like You
TTITLE5=Buttermilk Boy
TTITLE6=As Safe As Yesterday
TTITLE7=Heartbeat
TTITLE8=Down Home Again
TTITLE9=Wrist Job
EXTD=
EXTT0=
EXTT1=
EXTT2=
EXTT3=
EXTT4=
EXTT5=
EXTT6=
EXTT7=
EXTT8=
EXTT9=
PLAYORDER=
